<svg width="1018" height="208" viewBox="0 0 1018 208" fill="none" xmlns="http://www.w3.org/2000/svg">
<path d="M196.525 204H163.525L147.325 162.6H49.2254L33.0254 204H0.0253907L79.5254 3.89998H117.025L196.525 204ZM138.625 135.9L98.1254 30L57.9254 135.9H138.625ZM230.13 34.8C220.83 34.8 212.73 27.3 212.73 17.7C212.73 8.09998 220.83 0.299994 230.13 0.299994C239.73 0.299994 247.53 8.09998 247.53 17.7C247.53 27.3 239.73 34.8 230.13 34.8ZM243.93 204H216.93V59.1H243.93V204ZM310.95 204H283.95V3.89998H310.95V80.1C322.35 64.5 339.45 55.5 358.35 55.5C396.15 55.5 422.85 85.2 422.85 131.7C422.85 179.1 395.85 207.6 358.35 207.6C338.85 207.6 321.75 197.7 310.95 183.3V204ZM310.95 101.1V162.6C318.15 174.3 334.65 183.6 351.15 183.6C378.15 183.6 394.95 162 394.95 131.7C394.95 101.4 378.15 79.5 351.15 79.5C334.65 79.5 318.15 89.4 310.95 101.1ZM570.787 204H543.787V188.1C532.387 200.7 515.887 207.6 496.387 207.6C472.387 207.6 445.987 191.4 445.987 159.6C445.987 126.6 472.087 112.2 496.387 112.2C515.887 112.2 532.687 118.5 543.787 131.4V107.4C543.787 89.4 529.087 78.6 508.387 78.6C491.887 78.6 477.787 84.9 464.887 97.8L453.187 79.2C469.387 63.3 489.187 55.5 512.587 55.5C544.087 55.5 570.787 69.3 570.787 106.2V204ZM543.787 172.2V147.6C535.687 136.8 521.587 131.1 506.587 131.1C487.087 131.1 473.287 142.8 473.287 159.9C473.287 177 487.087 188.7 506.587 188.7C521.587 188.7 535.687 183 543.787 172.2ZM716.655 204H604.155V183.3L679.755 82.8H604.155V59.1H715.455V79.2L639.255 180.6H716.655V204ZM741.145 131.4C741.145 89.4 771.445 55.5 813.745 55.5C857.245 55.5 884.245 89.4 884.245 133.8V140.4H769.645C771.745 165 789.745 185.4 818.845 185.4C834.145 185.4 850.945 179.4 861.745 168.3L874.345 186C859.945 200.1 839.545 207.6 816.145 207.6C772.945 207.6 741.145 177 741.145 131.4ZM813.745 77.7C784.645 77.7 770.845 101.1 769.345 120.9H857.845C857.245 101.7 844.345 77.7 813.745 77.7ZM942.944 11.7H924.344V69.9H915.944V11.7H897.344V3.89998H942.944V11.7ZM1017.94 69.9H1009.54V15.3L987.044 69.9H984.644L962.144 15.3V69.9H953.744V3.89998H966.644L985.844 51.9L1005.04 3.89998H1017.94V69.9Z" fill="white"/>
</svg>
