<svg width="1114" height="237" viewBox="0 0 1114 237" fill="none" xmlns="http://www.w3.org/2000/svg">
<path d="M939.043 188.815C938.969 182.644 938.977 176.423 939.175 170.26L966.432 155L993.648 170.293C993.92 176.44 993.895 182.66 993.821 188.815L992.526 189.954L966.383 175.292L940.693 189.75L939.043 188.815Z" stroke="#FEFEFE" stroke-width="2" stroke-miterlimit="10"/>
<path d="M985.648 206.682C985.409 206.829 985.046 207.706 984.304 208.165C981.822 209.673 967.917 218.008 966.424 218C959.595 214.951 953.542 210.55 947.216 206.682C947.059 206.042 946.837 205.075 947.249 204.805C949.426 203.379 965.129 194.708 966.366 194.659C967.463 194.618 983.331 203.338 985.393 204.69L985.64 206.682H985.648Z" stroke="#FEFEFE" stroke-width="2" stroke-miterlimit="10"/>
<path d="M993.821 188.815C993.805 190.438 993.862 192.069 993.821 193.692L992.328 194.282C983.586 190.372 974.935 185.955 966.383 181.013L940.693 195.446L939.043 194.503C938.985 192.61 939.068 190.708 939.043 188.815L966.424 173.407L993.821 188.815Z" stroke="#FEFEFE" stroke-width="2" stroke-miterlimit="10"/>
<path d="M993.821 193.683C993.772 195.56 993.961 197.503 993.821 199.371L992.543 200.527L966.49 186.135L940.693 200.33L939.051 199.379C938.928 197.773 939.101 196.118 939.051 194.503L966.432 179.12C976.007 183.111 984.106 190.102 993.83 193.683H993.821Z" stroke="#FEFEFE" stroke-width="2" stroke-miterlimit="10"/>
<path d="M993.821 199.371C993.739 200.469 994.102 201.625 993.434 202.658C992.856 203.518 991.619 203.24 991.364 203.436L988.766 203.862L966.383 191.536L944.379 203.707C943.513 204.043 942.556 203.953 941.493 203.444C941.245 203.248 940.008 203.526 939.423 202.666C938.754 201.633 939.117 200.478 939.035 199.379L966.424 184.25L993.813 199.379L993.821 199.371Z" stroke="#FEFEFE" stroke-width="2" stroke-miterlimit="10"/>
<path d="M991.372 203.436C988.997 205.28 987.52 205.526 985.648 206.682L966.432 196.15L947.224 206.682C945.303 205.51 943.892 205.289 941.501 203.436L966.432 189.651L991.372 203.436Z" stroke="#FEFEFE" stroke-width="2" stroke-miterlimit="10"/>
<path d="M1031.68 166.548C1035.5 168.572 1037.84 172.129 1038.7 177.202H1033.47C1032.84 174.366 1031.54 172.301 1029.58 171.006C1027.62 169.711 1025.14 169.064 1022.16 169.064C1018.61 169.064 1015.64 170.416 1013.21 173.112C1010.79 175.809 1009.57 179.825 1009.57 185.168C1009.57 189.782 1010.57 193.544 1012.57 196.445C1014.56 199.347 1017.82 200.797 1022.34 200.797C1025.8 200.797 1028.67 199.781 1030.93 197.74C1033.2 195.708 1034.36 192.413 1034.41 187.865H1022.18V183.504H1039.33V204.28H1035.92L1034.65 199.281C1032.88 201.24 1031.32 202.592 1029.96 203.354C1027.68 204.657 1024.77 205.313 1021.24 205.313C1016.69 205.313 1012.77 203.822 1009.49 200.846C1005.91 197.109 1004.13 191.979 1004.13 185.463C1004.13 178.948 1005.88 173.784 1009.38 169.949C1012.7 166.285 1017 164.45 1022.27 164.45C1025.89 164.45 1029.02 165.154 1031.66 166.564L1031.68 166.548Z" fill="#FEFEFE"/>
<path d="M1051.87 191.741C1052 193.946 1052.5 195.732 1053.38 197.109C1055.07 199.683 1058.06 200.969 1062.32 200.969C1064.24 200.969 1065.98 200.691 1067.55 200.125C1070.59 199.035 1072.11 197.076 1072.11 194.257C1072.11 192.143 1071.47 190.635 1070.18 189.733C1068.88 188.856 1066.83 188.086 1064.05 187.43L1058.92 186.242C1055.57 185.463 1053.19 184.611 1051.81 183.677C1049.4 182.054 1048.2 179.636 1048.2 176.407C1048.2 172.916 1049.37 170.055 1051.74 167.818C1054.11 165.581 1057.46 164.458 1061.79 164.458C1065.77 164.458 1069.16 165.441 1071.95 167.408C1074.73 169.375 1076.13 172.514 1076.13 176.833H1071.16C1070.9 174.752 1070.36 173.162 1069.52 172.047C1067.97 170.023 1065.35 169.006 1061.64 169.006C1058.64 169.006 1056.49 169.662 1055.19 170.965C1053.88 172.268 1053.23 173.784 1053.23 175.514C1053.23 177.415 1054 178.808 1055.54 179.693C1056.56 180.259 1058.85 180.964 1062.42 181.808L1067.73 183.054C1070.29 183.652 1072.27 184.472 1073.66 185.512C1076.07 187.324 1077.27 189.963 1077.27 193.413C1077.27 197.716 1075.74 200.789 1072.67 202.641C1069.61 204.494 1066.03 205.42 1061.97 205.42C1057.23 205.42 1053.52 204.19 1050.84 201.715C1048.16 199.265 1046.84 195.945 1046.9 191.749H1051.87V191.741Z" fill="#FEFEFE"/>
<path d="M1088.6 191.741C1088.72 193.946 1089.23 195.732 1090.11 197.109C1091.8 199.683 1094.78 200.969 1099.05 200.969C1100.96 200.969 1102.7 200.691 1104.28 200.125C1107.32 199.035 1108.84 197.076 1108.84 194.257C1108.84 192.143 1108.19 190.635 1106.91 189.733C1105.6 188.856 1103.56 188.086 1100.77 187.43L1095.64 186.242C1092.29 185.463 1089.92 184.611 1088.53 183.677C1086.12 182.054 1084.92 179.636 1084.92 176.407C1084.92 172.916 1086.1 170.055 1088.47 167.818C1090.83 165.581 1094.18 164.458 1098.51 164.458C1102.5 164.458 1105.88 165.441 1108.67 167.408C1111.46 169.375 1112.85 172.514 1112.85 176.833H1107.88C1107.62 174.752 1107.08 173.162 1106.25 172.047C1104.7 170.023 1102.07 169.006 1098.36 169.006C1095.37 169.006 1093.22 169.662 1091.91 170.965C1090.6 172.268 1089.95 173.784 1089.95 175.514C1089.95 177.415 1090.73 178.808 1092.27 179.693C1093.28 180.259 1095.58 180.964 1099.15 181.808L1104.46 183.054C1107.01 183.652 1108.99 184.472 1110.39 185.512C1112.8 187.324 1114 189.963 1114 193.413C1114 197.716 1112.47 200.789 1109.4 202.641C1106.33 204.494 1102.76 205.42 1098.69 205.42C1093.95 205.42 1090.25 204.19 1087.57 201.715C1084.89 199.265 1083.57 195.945 1083.63 191.749H1088.6V191.741Z" fill="#FEFEFE"/>
<path d="M722.299 170.853V176.173L719.569 185.073C716.899 186.563 717.809 188.913 722.299 192.123V199.213C715.699 198.563 707.619 200.143 701.299 199.223C698.599 198.833 698.399 200.273 698.569 196.533C698.879 189.453 705.549 184.373 709.539 178.833C703.749 177.703 693.429 179.343 699.419 170.753C701.499 167.773 718.179 168.423 722.299 170.863V170.853Z" fill="#FEFEFE"/>
<path d="M651.289 199.213C640.049 196.223 631.109 205.623 622.119 194.813C613.889 184.913 620.319 171.553 632.149 168.903C636.159 171.633 648.589 167.993 650.459 170.773C653.309 174.993 650.099 193.073 651.289 199.213ZM630.609 178.193C625.229 179.943 626.919 190.353 632.549 191.873C644.849 195.193 647.239 172.773 630.609 178.193Z" fill="#FEFEFE"/>
<path d="M552.969 158.453C553.299 158.143 561.759 158.133 562.079 158.453C562.839 159.173 561.259 169.933 562.079 170.863C562.809 171.683 577.379 164.303 581.289 176.083C582.239 178.933 582.959 198.423 582.099 199.233C581.769 199.543 573.299 199.543 572.979 199.233C572.199 198.493 573.579 181.313 572.979 177.953C555.029 173.073 564.849 196.583 562.069 199.233C561.739 199.543 552.959 199.663 552.959 199.233C552.959 193.573 551.459 159.903 552.959 158.473L552.969 158.453Z" fill="#FEFEFE"/>
<path d="M518.369 169.083V199.203C505.339 200.803 485.409 202.483 485.789 184.103C486.159 166.333 506.469 170.303 518.369 169.073V169.083ZM499.619 178.263C492.929 180.203 493.029 189.883 499.619 191.793C513.399 195.793 513.399 174.263 499.619 178.263Z" fill="#FEFEFE"/>
<path d="M594.849 188.593C596.759 196.573 614.949 186.023 613.049 194.753C610.939 204.473 582.159 203.293 585.849 180.703C588.529 164.283 613.509 164.973 615.979 183.223C617.229 192.463 601.279 187.343 594.839 188.593H594.849ZM607.589 181.473C606.649 176.833 597.319 175.443 594.849 177.973C590.159 182.763 606.069 181.603 607.589 181.473Z" fill="#FEFEFE"/>
<path d="M678.599 163.763C678.889 163.483 685.469 163.403 686.689 163.643C688.609 164.013 686.979 167.723 688.039 168.753C689.099 169.783 692.919 168.223 693.289 170.053C695.589 181.363 688.009 176.763 687.579 178.913C687.219 180.713 687.219 189.353 687.579 191.143C687.969 193.043 696.009 189.833 693.169 199.203C689.719 200.283 678.599 198.533 678.599 194.783C678.599 190.423 677.459 164.853 678.599 163.773V163.763Z" fill="#FEFEFE"/>
<path d="M656.749 171.743C658.239 166.923 668.629 172.203 673.119 169.093C676.569 178.043 667.309 179.343 666.129 182.653C664.879 186.173 666.699 198.433 665.859 199.223C665.529 199.533 656.749 199.653 656.749 199.223C656.749 193.143 655.459 175.933 656.749 171.753V171.743Z" fill="#FEFEFE"/>
<path d="M532.939 158.453V199.213C532.939 199.653 523.839 199.653 523.839 199.213V158.453C523.839 158.013 531.399 158.753 532.939 158.453Z" fill="#FEFEFE"/>
<path d="M547.499 158.453V199.213C547.499 199.653 538.399 199.653 538.399 199.213V158.453C538.399 158.013 545.959 158.753 547.499 158.453Z" fill="#FEFEFE"/>
<path d="M531.119 160.223V197.433C531.119 197.703 525.659 197.703 525.659 197.433V160.223C525.659 159.953 529.979 160.393 531.119 160.223Z" fill="#FEFEFE"/>
<path d="M545.679 160.223V197.433C545.679 197.703 540.219 197.703 540.219 197.433V160.223C540.219 159.953 544.539 160.393 545.679 160.223Z" fill="#FEFEFE"/>
<path d="M440.079 208.063H427.329C426.809 206.063 425.109 205.583 423.689 204.523C419.579 200.323 416.539 196.183 414.589 192.123C413.309 189.803 421.419 180.563 423.689 183.263C427.609 186.683 441.199 197.613 442.939 201.013C444.549 204.173 441.389 205.823 440.079 208.073V208.063Z" fill="#FEFEFE"/>
<path d="M452.819 174.403C452.469 173.953 453.149 170.863 451.859 169.203C450.269 167.153 441.279 159.573 441.909 158.493C459.599 146.123 478.929 169.383 463.739 185.033C457.659 185.973 453.219 179.523 452.819 174.403Z" fill="#FEFEFE"/>
<path d="M414.579 156.683C421.039 156.423 421.089 167.083 418.219 170.863C416.399 171.353 415.219 172.743 414.579 174.403C412.779 179.283 401.129 177.983 400.009 172.633C400.299 164.253 406.269 157.913 414.579 156.683Z" fill="#FEFEFE"/>
<path d="M414.579 174.403C415.339 174.653 415.849 175.873 416.399 176.173C420.199 179.983 410.139 189.263 405.479 186.803C401.769 181.613 399.779 179.463 400.019 172.623C403.909 173.333 411.329 173.313 414.589 174.393L414.579 174.403Z" fill="#FEFEFE"/>
<path d="M443.719 174.403C447.419 177.833 440.989 184.723 436.439 185.033C433.019 182.263 431.999 181.153 429.159 177.943C425.729 173.693 433.739 166.233 438.259 169.083C439.789 170.433 443.229 174.063 443.719 174.403Z" fill="#FEFEFE"/>
<path d="M438.249 169.083L429.149 177.943C427.599 176.203 425.669 175.943 423.689 172.623C421.459 168.053 425.999 161.943 430.969 161.993C433.979 164.543 435.919 167.023 438.249 169.083Z" fill="#FEFEFE"/>
<path d="M447.359 176.173C448.729 180.033 448.689 187.163 445.539 190.353C437.879 188.093 441.259 188.943 436.439 185.033C436.539 180.223 441.749 178.393 443.719 174.403C443.909 174.533 447.169 176.123 447.359 176.173Z" fill="#FEFEFE"/>
<path d="M425.509 156.683C428.529 160.713 427.319 165.443 421.869 170.863C420.719 171.043 419.209 170.603 418.229 170.863L414.589 156.683C416.739 156.363 423.629 156.253 425.509 156.683Z" fill="#FEFEFE"/>
<path d="M420.049 179.713C422.849 183.663 413.539 193.203 409.129 190.343C408.309 189.363 406.879 188.743 405.489 186.803L416.409 176.173C418.609 177.403 418.969 178.853 420.049 179.713Z" fill="#FEFEFE"/>
<path d="M463.749 185.033C461.889 186.953 458.909 189.313 456.469 190.353C451.489 193.033 450.869 180.233 451.009 176.173C451.439 176.063 452.129 174.743 452.829 174.403C455.439 177.763 461.329 180.563 463.749 185.033Z" fill="#FEFEFE"/>
<path d="M430.969 161.993C431.339 167.563 423.319 167.053 423.689 172.623C423.359 172.073 421.989 171.523 421.869 170.853C420.899 165.453 424.589 161.573 425.509 156.673C428.699 157.393 429.419 160.683 430.969 161.993Z" fill="#FEFEFE"/>
<path d="M456.459 190.343C453.899 191.433 452.179 192.293 449.179 192.113C445.929 188.113 447.669 180.913 449.179 176.163C449.689 176.213 450.529 176.283 450.999 176.163L456.459 190.343Z" fill="#FEFEFE"/>
<path d="M449.179 192.123C447.309 192.013 446.339 190.593 445.539 190.353C442.699 186.013 447.989 181.283 447.359 176.173C447.849 176.313 448.549 176.113 449.179 176.173C448.649 181.693 451.749 186.863 449.179 192.123Z" fill="#FEFEFE"/>
<path d="M423.689 183.263C419.609 185.263 417.259 188.743 414.589 192.123C415.099 193.793 414.489 194.383 412.769 193.893C411.649 192.723 410.499 192.003 409.129 190.353C414.169 188.663 419.229 185.463 420.049 179.723C421.709 181.043 422.539 182.253 423.689 183.263Z" fill="#FEFEFE"/>
<path d="M423.689 204.523C418.689 200.783 416.759 198.083 412.769 193.893C413.279 193.233 414.079 192.763 414.589 192.123C416.909 196.903 423.319 198.913 423.689 204.523Z" fill="#FEFEFE"/>
<path d="M779.37 38.7199L787.843 7.64053C788.964 6.90534 794.807 6.66543 795.491 8.56146L802.96 38.7353L811.456 8.05069L818.816 7.30002L807.216 45.8241C806.352 47.4184 800.922 47.6505 799.459 46.7915C797.623 45.7003 792.706 20.5645 791.726 16.5015L783.813 46.2111C782.008 47.2791 777.348 47.9214 775.846 46.4123L763.88 7.30002C766.401 7.53993 770.501 6.27849 771.971 8.86327L779.363 38.7276L779.37 38.7199Z" fill="#FEFEFE"/>
<path d="M722.115 59.4214C732.494 64.8154 743.216 69.8147 754.606 72.8329C779.907 79.5502 803.707 79.3413 828.876 72.0668C832.673 70.9678 838.781 67.7639 841.815 67.2454C848.039 66.1852 843.239 70.0856 840.889 71.703C810.095 92.8998 762.526 89.3554 732.385 68.7855C731.226 67.9961 720.754 60.8067 722.123 59.4137L722.115 59.4214Z" fill="#FEFEFE"/>
<path d="M753.05 41.7922C746.631 49.1751 731.312 51.4039 727.748 40.4224C722.839 25.3084 740.741 20.4097 752.279 24.9215C754.365 8.42218 740.827 11.3397 729.849 14.9538C729.95 13.5995 729.6 12.044 729.849 10.7361C730.681 6.24755 745.059 6.10052 748.802 6.51842C763.11 8.13584 758.41 24.0779 759.258 33.7206C759.538 36.8858 762.308 43.4019 760.783 45.2128C757.43 49.1906 753.703 45.8629 753.05 41.7767V41.7922ZM752.233 29.5648C746.055 28.52 735.171 26.655 734.665 35.4773C733.988 47.3642 756.566 41.7767 752.233 29.5648Z" fill="#FEFEFE"/>
<path d="M821.921 39.486C824.978 39.1455 827.204 41.3124 830.106 41.7226C834.922 42.3881 846.592 42.5506 844.196 34.6724C842.437 28.8838 825.033 30.7875 822.87 20.5335C820.186 7.81081 834.533 4.08067 844.382 6.87441C846.841 7.5709 849.829 8.49957 849.836 11.5023C849.86 16.5093 844.499 12.5238 841.441 12.0904C837.543 11.5409 829.234 11.9821 829.849 17.5308C830.526 23.6832 845.588 23.9309 849.782 29.1159C855.539 36.228 849.385 45.9635 841.301 47.5809C835.217 48.7959 819.999 48.6411 821.921 39.486Z" fill="#FEFEFE"/>
<path d="M836.999 60.9536C836.112 61.0077 834.276 62.3543 832.743 61.712C838.508 56.2638 849.074 55.8537 856.387 58.6087C858.932 62.2073 853.057 78.4666 847.845 80.1305L851.984 65.1326L851.245 62.9657C850.879 62.4085 849.051 60.9536 848.615 60.9536C844.834 60.9536 840.734 60.7137 837.007 60.9536H836.999Z" fill="#FEFEFE"/>
<path d="M553.907 84.1777C553.057 72.5277 555.867 59.7277 552.187 48.6677C555.017 49.1677 566.697 47.8677 567.577 48.7277C568.457 49.5877 571.047 69.4177 573.657 72.3577C575.877 72.3977 579.217 52.4377 581.197 49.6677C582.937 47.2277 591.697 49.2777 595.137 48.6577V84.1877H588.257L585.677 57.1077L577.947 84.1877H571.077L561.627 57.1077L560.767 84.1877H553.897L553.907 84.1777Z" fill="#FEFEFE"/>
<path d="M492.067 84.1777C469.387 73.5377 483.707 37.9577 505.687 49.6377C510.447 52.1677 517.817 61.4077 506.757 58.7377C502.917 57.8077 500.667 54.1177 497.057 54.5177C480.407 56.3377 490.747 89.4477 505.797 73.1677L498.927 70.6477C496.697 60.0177 504.467 64.7277 512.687 63.8777C513.687 73.8977 512.137 80.2377 502.377 84.1877H492.067V84.1777Z" fill="#FEFEFE"/>
<path d="M548.757 84.1776H540.167C539.137 74.5776 537.037 74.4476 527.217 75.6076C522.927 76.1176 523.617 80.2776 522.997 84.1776H514.407C515.947 79.5176 523.467 50.0376 524.887 48.8376C525.647 48.1976 533.987 48.3476 535.657 48.8876C539.357 50.0976 546.457 78.5276 548.767 84.1776H548.757ZM533.277 57.1076C529.537 53.2876 528.097 67.9176 526.427 68.9376H535.017C535.447 68.5276 533.697 57.5376 533.277 57.1076Z" fill="#FEFEFE"/>
<path d="M601.997 84.1777C598.257 73.0977 601.177 60.2377 600.277 48.6577H626.037C627.537 58.1677 615.257 56.3377 608.877 53.7377L608.847 62.2077H622.607C624.917 72.9977 616.477 68.0377 608.847 68.9577V77.4377L625.157 77.4177L624.317 84.1977H601.987L601.997 84.1777Z" fill="#FEFEFE"/>
<path d="M638.077 84.1777C629.447 81.5377 624.697 67.8677 636.297 73.2377C638.807 74.3977 639.037 77.5277 644.067 77.5777C646.757 77.5977 650.787 76.4077 650.087 73.2077C648.837 67.5177 628.897 69.4977 629.457 58.1177C630.097 45.2977 654.837 44.2177 656.987 56.2477C658.437 64.3477 646.117 54.1277 645.447 53.9577C644.027 53.6077 638.507 55.0677 638.187 55.5577C633.317 62.9877 653.537 62.2377 655.817 67.6377C659.507 76.3777 656.477 80.7477 648.377 84.1777H638.067H638.077Z" fill="#FEFEFE"/>
<path d="M464.507 14.8976L464.597 63.8876L449.137 65.5776C447.947 55.9376 447.057 44.7076 444.467 35.4076C443.637 32.4076 445.007 31.0176 440.547 31.7476L443.987 65.5576C440.267 65.4976 431.597 68.9676 428.737 67.0476C427.027 65.8976 424.457 45.1576 423.417 40.9276C422.707 38.0576 425.117 35.9976 419.947 36.8276L421.667 68.9576C417.527 67.5476 408.877 72.0777 406.997 69.0276L401.907 41.8976C392.957 51.0576 411.247 72.9276 392.457 72.3376C392.057 64.7876 379.617 31.3076 382.407 26.9076L427.897 6.83765L464.517 14.8976H464.507Z" fill="#FEFEFE"/>
<path d="M481.767 6.36765C492.537 5.03765 513.797 6.67765 508.937 22.1077C507.057 28.0877 499.757 24.1576 500.657 30.0476C509.447 27.9776 508.477 34.4777 510.997 41.0277C495.697 47.2677 505.877 25.7176 490.357 30.0476L490.377 41.9076H481.777V6.36765H481.767ZM490.357 23.2977C504.757 25.6177 504.757 10.8077 490.357 13.1277V23.2977Z" fill="#FEFEFE"/>
<path d="M541.407 6.69765C566.947 1.11765 570.377 42.6677 545.867 43.0377C524.927 43.3577 522.487 10.8277 541.407 6.69765ZM551.777 15.2377C541.817 5.40766 529.657 26.2077 540.267 34.1977C551.907 42.9677 558.677 22.0477 551.777 15.2377Z" fill="#FEFEFE"/>
<path d="M589.977 6.36768C590.397 6.79768 589.707 11.4877 589.977 13.1277C588.547 13.4577 581.377 12.7077 581.377 13.1277V41.8877H572.787V17.3577C572.787 15.7277 578.517 15.7277 577.927 13.1477C569.707 12.2477 561.947 17.0377 564.197 6.36768C568.037 7.03768 589.067 5.45768 589.957 6.36768H589.977Z" fill="#FEFEFE"/>
<path d="M464.577 68.9576L464.597 82.4876C460.047 82.5276 431.257 78.7776 430.247 77.3876C429.167 75.9076 431.127 73.2076 433.097 72.6076C440.907 70.2476 455.937 72.4876 464.577 68.9476V68.9576Z" fill="#FEFEFE"/>
<path d="M522.987 6.36767V41.8877C522.987 42.2277 516.117 42.2277 516.117 41.8877V6.36767C516.117 6.02767 521.757 6.59767 522.987 6.36767Z" fill="#FEFEFE"/>
<path d="M88.81 165.01H95.3C96.15 165.01 96.73 165.42 97.36 165.92C99.05 167.28 107.71 180.42 109.62 183.34C110.16 184.17 110.54 185.05 110.71 186.02C110.86 186.98 112.47 186.76 113.25 186.64C114.5 186.45 124.43 168.03 127.16 165.92L135.71 165.01V199.39H130.72V170.91C128.8 170.46 128.79 171.59 127.9 172.55C123.18 177.65 119.76 185.11 115.25 190.55C113.79 192.1 110.73 192.1 109.27 190.55L94.8 170.91V199.39H88.81V165.01Z" fill="#F4F4F4"/>
<path d="M24.84 165.11L41.91 199.37L36.03 199.27L31.33 189.51H10.58L5.88 199.27L0 199.37L17.07 165.11H24.84ZM11.97 186.61H29.93L21.44 168.93C19.39 168.49 20.1 169.75 19.48 170.89C16.7 175.97 14.97 181.63 11.96 186.61H11.97Z" fill="#F4F4F4"/>
<path d="M59.88 194.47C60.85 195.88 61.62 194.45 62.08 193.22C65.64 183.7 70.95 174.5 74.99 165.15L79.83 165L64.26 199.42L57.35 198.41L41.9 165L47.41 165.96C51.55 175.29 57.53 184.57 59.87 194.47H59.88Z" fill="#F4F4F4"/>
<path d="M168.21 175.2C169.84 176.77 170.74 178.56 170.92 180.56H167.81C167.46 179.04 166.77 177.84 165.74 176.95C164.71 176.06 163.25 175.62 161.39 175.62C159.11 175.62 157.27 176.44 155.87 178.07C154.47 179.7 153.77 182.2 153.77 185.57C153.77 188.33 154.4 190.57 155.67 192.29C156.93 194.01 158.82 194.87 161.33 194.87C163.64 194.87 165.4 193.97 166.61 192.16C167.25 191.21 167.73 189.96 168.04 188.41H171.15C170.87 190.89 169.97 192.97 168.42 194.65C166.57 196.67 164.08 197.68 160.94 197.68C158.23 197.68 155.96 196.85 154.12 195.19C151.7 193 150.49 189.61 150.49 185.03C150.49 181.55 151.4 178.7 153.22 176.48C155.18 174.06 157.89 172.85 161.35 172.85C164.3 172.85 166.59 173.64 168.21 175.21V175.2Z" fill="#F4F4F4"/>
<path d="M194.89 176.85C196.45 178.93 197.23 181.6 197.23 184.85C197.23 188.37 196.34 191.29 194.55 193.62C192.45 196.36 189.47 197.72 185.59 197.72C181.97 197.72 179.12 196.52 177.04 194.13C175.19 191.82 174.27 188.9 174.27 185.38C174.27 182.19 175.06 179.47 176.64 177.2C178.67 174.29 181.68 172.84 185.65 172.84C189.62 172.84 192.89 174.18 194.89 176.85ZM192.08 191.87C193.34 189.85 193.96 187.53 193.96 184.91C193.96 182.14 193.24 179.91 191.79 178.22C190.34 176.53 188.36 175.68 185.85 175.68C183.34 175.68 181.42 176.52 179.89 178.19C178.35 179.86 177.58 182.33 177.58 185.6C177.58 188.21 178.24 190.41 179.56 192.2C180.88 193.99 183.02 194.89 185.98 194.89C188.94 194.89 190.82 193.88 192.08 191.87Z" fill="#F4F4F4"/>
<path d="M201.26 173.48H205.02L216.77 192.51V173.48H219.82V197.03H216.24L204.32 178.02V197.03H201.27V173.48H201.26Z" fill="#F4F4F4"/>
<path d="M227.29 189.44C227.36 190.78 227.67 191.86 228.2 192.69C229.22 194.25 231.02 195.03 233.59 195.03C234.74 195.03 235.79 194.86 236.74 194.52C238.57 193.86 239.49 192.67 239.49 190.96C239.49 189.68 239.1 188.76 238.32 188.22C237.53 187.69 236.3 187.22 234.62 186.82L231.53 186.1C229.51 185.63 228.08 185.11 227.24 184.54C225.79 183.56 225.07 182.09 225.07 180.13C225.07 178.01 225.78 176.28 227.21 174.92C228.64 173.56 230.65 172.88 233.26 172.88C235.66 172.88 237.7 173.48 239.38 174.67C241.06 175.86 241.9 177.77 241.9 180.39H238.9C238.75 179.13 238.42 178.16 237.92 177.49C236.99 176.26 235.4 175.65 233.17 175.65C231.37 175.65 230.07 176.05 229.28 176.84C228.49 177.63 228.1 178.55 228.1 179.6C228.1 180.75 228.57 181.6 229.5 182.13C230.11 182.47 231.49 182.9 233.65 183.41L236.85 184.16C238.39 184.52 239.58 185.02 240.42 185.65C241.87 186.75 242.59 188.35 242.59 190.44C242.59 193.05 241.67 194.91 239.81 196.04C237.95 197.17 235.81 197.72 233.36 197.72C230.5 197.72 228.27 196.97 226.65 195.47C225.03 193.98 224.24 191.97 224.27 189.43H227.27L227.29 189.44Z" fill="#F4F4F4"/>
<path d="M250.78 173.48V188.04C250.78 189.75 251.1 191.17 251.75 192.31C252.71 194.02 254.33 194.88 256.6 194.88C259.33 194.88 261.18 193.96 262.16 192.11C262.69 191.11 262.95 189.75 262.95 188.05V173.49H266.17V186.72C266.17 189.62 265.78 191.84 265 193.41C263.56 196.25 260.85 197.67 256.86 197.67C252.87 197.67 250.16 196.25 248.74 193.41C247.96 191.85 247.57 189.62 247.57 186.72V173.49H250.79L250.78 173.48Z" fill="#F4F4F4"/>
<path d="M271.28 173.48H274.47V194.23H286.29V197.04H271.28V173.49V173.48Z" fill="#F4F4F4"/>
<path d="M304.48 173.48V176.29H296.54V197.04H293.32V176.29H285.38V173.48H304.48Z" fill="#F4F4F4"/>
<path d="M308.36 173.48H311.58V197.03H308.36V173.48Z" fill="#F4F4F4"/>
<path d="M316.99 173.48H320.75L332.5 192.51V173.48H335.55V197.03H331.97L320.05 178.02V197.03H317V173.48H316.99Z" fill="#F4F4F4"/>
<path d="M356.61 174.16C358.92 175.39 360.33 177.54 360.85 180.62H357.69C357.31 178.9 356.53 177.65 355.35 176.86C354.17 176.07 352.68 175.68 350.88 175.68C348.74 175.68 346.95 176.5 345.49 178.13C344.03 179.76 343.3 182.2 343.3 185.44C343.3 188.24 343.9 190.52 345.11 192.28C346.32 194.04 348.28 194.92 351 194.92C353.08 194.92 354.81 194.3 356.18 193.07C357.55 191.84 358.25 189.84 358.28 187.08H350.9V184.43H361.24V197.03H359.19L358.42 194C357.36 195.19 356.42 196.01 355.6 196.47C354.22 197.26 352.47 197.66 350.35 197.66C347.61 197.66 345.24 196.76 343.27 194.95C341.11 192.68 340.04 189.57 340.04 185.62C340.04 181.67 341.09 178.54 343.2 176.21C345.2 173.99 347.79 172.87 350.97 172.87C353.15 172.87 355.04 173.3 356.63 174.15L356.61 174.16Z" fill="#F4F4F4"/>
<path d="M809.6 222.79C808.4 222.45 807.05 220.1 807.95 218.65L822.93 178.35C821.33 176.21 789.91 181.69 789.91 175.16V139.6C789.91 139.47 791.68 137.69 791.82 137.69H873.1C873.23 137.69 875.01 139.46 875.01 139.6V175.16C875.01 178.82 870.01 177.07 869.29 177.07H842.62C838.27 177.07 843.13 182.84 843.52 183.8C846.42 191.06 855.14 212.29 855.72 218.71C855.86 220.21 855.46 222.8 854.05 222.8H809.6V222.79ZM872.47 140.23H792.45V174.52H824.84C830.19 174.52 823.8 183.64 823.49 184.6C822.41 187.95 821.38 190.72 820.48 193.26C817.47 201.72 813.87 211.55 812.77 220.24H852.14C851.92 213.27 847.28 206.05 845.13 199.94C843.66 195.76 842.74 190.19 841.37 185.92C841 184.76 834.56 174.52 840.07 174.52H872.46V140.23H872.47Z" fill="#FEFEFE"/>
<path d="M872.47 140.23V174.52H840.08C834.57 174.52 841.01 184.77 841.38 185.92C842.75 190.19 843.67 195.76 845.14 199.94C847.29 206.05 851.93 213.26 852.15 220.24H812.78C813.87 211.56 817.48 201.72 820.49 193.26C821.39 190.72 822.42 187.95 823.5 184.6C823.81 183.64 830.2 174.52 824.85 174.52H792.45V140.23H872.46H872.47Z" fill="#FEFEFE"/>
<path d="M948.865 13.5873C968.665 16.0226 967.948 41.5893 949.369 42.4627C951.856 48.8833 961.649 56.6806 963.899 62.3955C966.016 67.7634 961.203 66.7222 957.889 63.3673C955.865 61.3196 941.34 42.3355 941.329 40.9472C941.282 36.233 948.802 37.8815 951.665 37.2684C959.595 35.5736 960.18 22.1019 951.648 19.7824C948.148 18.828 939.084 17.486 936.314 20.0542V63.8532C936.314 67.4279 931.293 66.5891 931.293 64.8481V15.0855L932.797 13.5931C937.91 14.0385 943.879 12.98 948.86 13.5931L948.865 13.5873Z" fill="#FEFEFE"/>
<path d="M1065.79 23.548C1065.02 22.9522 1063.65 25.7866 1063.29 26.5269C1058.19 37.1354 1055.68 54.4074 1049.95 64.0672C1047.73 67.8213 1044.78 67.0288 1044.74 62.974L1061.57 15.8607L1064.32 13.5238C1065.52 13.4081 1066.47 13.7552 1067.4 14.4955C1071.34 17.6249 1082.22 57.0798 1085.38 64.3854L1082.48 66.2884L1079.65 63.0665L1065.78 23.548H1065.79Z" fill="#FEFEFE"/>
<path d="M1027.68 57.3805L1042.9 15.259L1047.16 13.651C1048.85 14.5938 1048.64 14.993 1048.34 16.6068C1046.66 25.665 1039.31 43.5965 1035.71 52.9324C1034.42 56.2815 1031.91 66.0107 1028.19 66.2999L1025.32 65.4265L1007.67 15.2243L1010.1 13.5469L1013.38 16.306L1027.68 57.3805Z" fill="#FEFEFE"/>
<path d="M970.447 14.588C971.216 13.3907 994.729 13.142 998.102 13.5469C1001.79 13.9865 1001.79 14.9062 1001.57 18.5677C997.714 17.6422 993.382 19.5626 990.027 19.5683C985.816 19.5741 979.227 16.4275 975.473 20.0658V59.8851L976.977 61.3775H1001.57L1001.13 65.4207C999.901 67.2023 974.507 66.6354 970.453 65.3571V14.588H970.447Z" fill="#FEFEFE"/>
<path d="M1091.9 15.0855C1092.58 12.7313 1096.92 13.599 1096.92 15.0855V64.8597L1094.43 66.3463C1093.95 65.7273 1091.91 64.1656 1091.91 63.859V15.0855H1091.9Z" fill="#FEFEFE"/>
<path d="M995.539 41.4621H979.979C978.956 41.4621 977.914 38.3386 978.475 37.494C979.077 36.5859 999.183 33.659 995.533 41.4621H995.539Z" fill="#FEFEFE"/>
<path d="M1069.82 46.4366L1060.29 46.4481C1057.41 40.8316 1071.42 40.444 1069.82 46.4366Z" fill="#FEFEFE"/>
<path d="M71.7323 3.00781C76.5978 4.17145 81.5182 4.62441 86.3916 5.89738C100.032 9.45859 118.178 19.8376 120.098 35.1836C123.279 60.6587 101.451 74.31 79.011 77.8947C53.7117 81.9401 18.4618 75.5283 10 47.8509V32.3878C15.3043 19.1269 27.3311 10.9659 40.6663 6.66273L58.4519 3H71.7401L71.7323 3.00781ZM105.337 16.1593C85.0205 4.20269 60.0111 1.76608 37.7282 9.9506C35.6911 10.7003 26.4222 14.2615 26.4066 16.5341C36.0358 20.2437 43.3538 22.1024 53.4218 18.5256C56.07 17.5806 57.8407 15.7376 60.7554 14.9566C73.4403 11.5516 79.8024 19.658 90.8654 20.0641C92.3776 20.1188 106.904 18.1664 105.337 16.1671V16.1593ZM65.3075 16.3311C57.9426 17.0886 51.9253 22.8365 47.8432 28.4985C47.2008 29.0843 48.2663 29.8184 48.7913 29.959C57.7389 32.4971 61.437 17.2995 73.2444 24.3204C77.0523 26.5852 92.9731 41.9624 94.7751 42.1733L117.794 34.2308C118.664 31.435 110.602 19.4706 107.773 18.8458C106.912 18.6584 95.59 22.4461 91.6724 22.407C82.6151 22.2977 74.1925 15.4174 65.3154 16.3311H65.3075ZM50.6325 21.5714C40.7995 25.2107 32.3299 20.4312 22.9983 17.854C17.9134 21.9931 12.7893 27.9909 12.3662 34.6838C16.4012 35.6053 20.7497 36.2848 24.675 37.589C27.0255 38.37 34.3983 42.1967 35.5266 42.2826C36.835 42.3841 37.9711 41.0096 39.3579 40.9003C41.7711 40.7129 42.9463 42.8449 43.9884 42.9308C45.0305 43.0167 46.2919 41.8374 47.7727 41.8921C50.8127 42.0171 52.4346 44.6645 52.748 44.7426C55.5607 45.4065 57.7937 44.1179 59.917 47.5775C60.5203 48.5616 60.5047 50.2328 60.9591 50.7717C61.6486 51.5917 64.336 51.3028 65.856 53.2786C67.7364 55.723 66.4123 58.7844 67.3838 60.2682C68.3554 61.7521 74.1376 61.8146 73.2758 59.8543L68.5904 54.0518C72.7351 53.8721 74.6782 61.0883 78.7446 59.0812C83.8374 56.5743 74.4824 51.7713 74.0593 48.6319C78.5958 49.1941 81.7376 57.5817 86.0782 54.7234C92.1739 50.7092 80.0139 46.0469 79.5281 41.6656C80.5859 40.5957 87.9508 48.5538 88.9145 48.9911C93.31 50.9826 96.3891 47.7572 93.2629 43.9226C87.2065 39.6351 81.8473 33.7466 75.9867 29.3108C61.39 18.2679 63.8659 29.8262 53.79 32.0519C51.0243 32.6611 44.247 31.927 45.2342 28.2877L50.609 21.5636L50.6325 21.5714ZM34.0536 44.1491C33.1604 42.5481 12.3662 36.1754 11.5592 37.0345C12.2173 65.1259 47.3261 73.8883 70.5962 72.5685C89.9331 71.4751 118.656 60.7212 117.834 37.8077C117.081 37.0657 98.6143 42.6731 97.5017 43.5946C95.5821 45.1878 98.5438 49.0614 94.1718 51.1309C93.0436 51.662 91.3199 51.5292 90.4893 52.1228C89.5491 52.7944 89.557 55.0983 87.7706 56.3947C85.5219 58.0269 74.8584 63.0485 72.1475 63.3765C69.4366 63.7045 67.0391 62.4393 65.1195 62.5799C61.7896 62.822 61.6642 65.6569 56.6733 62.5799C52.5208 60.0183 48.7208 58.8313 44.5917 56.543C42.1472 55.192 41.0503 52.4352 40.2511 51.9431C39.0445 51.2012 36.9995 51.9588 35.4012 50.1625C33.5678 48.1008 34.7744 45.4689 34.0379 44.1569L34.0536 44.1491ZM42.8288 47.0777C42.9463 43.3525 39.3736 41.6656 36.9525 44.7583C35.1975 49.366 39.2169 51.4199 42.8053 48.624C41.4498 56.8945 49.4337 53.63 49.8412 54.0283C50.0449 54.2314 49.614 57.0975 51.9723 57.7848L56.877 57.121C57.0416 59.0187 57.0807 60.9086 59.1805 61.4553C67.517 63.6108 66.9842 50.0844 58.4597 54.0361C59.1884 48.3195 57.0416 45.0316 51.4317 47.8509C51.134 44.0163 48.2742 43.0792 44.9991 44.9847C43.6437 45.7735 43.9962 46.9528 42.8366 47.0699L42.8288 47.0777Z" fill="#FEFEFE"/>
<path d="M171.762 37.0345L166.803 36.9095L165.51 35.8709V20.4077C165.51 17.565 156.915 17.7915 156.915 21.954V37.0345H151.446V20.4077C151.446 17.565 142.851 17.7915 142.851 21.954V37.0345H137.382V20.4077C137.382 15.7688 144.058 11.9342 148.508 12.4341C150.647 12.6762 154.055 15.3861 154.831 15.269C156.28 15.0347 158.443 12.2701 161.921 12.356C163.52 12.395 167.03 13.5118 168.283 14.5895C169.388 15.5345 171.778 20.7904 171.778 21.9618V37.0423L171.762 37.0345Z" fill="#FEFEFE"/>
<path d="M285.856 5.32721V30.4587C285.856 30.6852 283.929 33.9262 283.529 34.3479C280.724 37.3156 275.302 37.5186 271.463 36.9642C255.934 34.7306 263.55 2.82812 279.588 15.3861C279.298 10.3801 279.149 4.40568 285.848 5.33503L285.856 5.32721ZM273.923 17.8227C267.389 18.8145 268 32.3721 274.503 32.4502C282.855 32.5595 281.273 16.7059 273.923 17.8227Z" fill="#FEFEFE"/>
<path d="M197.547 26.2024H180.357C179.746 30.3025 182.951 32.9109 186.931 32.3877C188.772 32.1456 189.892 30.5446 190.88 30.4196C192.455 30.2244 194.774 31.677 196.756 30.0682C195.871 38.0341 182.841 39.0962 177.607 34.7149C172.373 30.3337 172.632 18.0804 179.017 14.4411C188.435 9.06802 198.597 15.4407 197.547 26.2024ZM180.357 22.3366H191.295C190.12 15.9874 181.329 15.878 180.357 22.3366Z" fill="#FEFEFE"/>
<path d="M297.374 12.4731C302.748 11.614 309.463 13.668 311.116 19.3768C314.524 31.146 307.833 39.9006 295.211 36.6674C285.3 34.1293 285.284 14.4099 297.374 12.4731ZM296.214 18.674C293.433 21.2512 293.456 29.9355 297.773 31.802C304.59 34.7541 306.729 25.8745 305.044 20.7435C303.986 17.5181 298.439 16.6122 296.214 18.674Z" fill="#FEFEFE"/>
<path d="M259.044 34.4729C255.088 38.7057 239.841 38.8931 239.856 30.4587C239.88 21.3995 248.984 23.719 253.646 21.8368C256.945 20.5014 254.516 17.2448 250.293 17.6431C246.736 17.9789 246.955 22.61 241.314 20.7982C239.261 10.4113 259.812 9.89587 260.894 18.0492C261.348 21.4698 261.34 32.0284 259.044 34.4807V34.4729ZM255.378 25.4371C239.621 25.5386 247.974 37.9794 253.826 31.2397C255.166 29.6934 254.21 27.2021 255.378 25.4371Z" fill="#FEFEFE"/>
<path d="M238.18 21.5636L231.63 21.6182C226.615 11.1064 217.942 23.3676 223.325 30.4666C226.137 34.1762 231.465 32.5596 231.23 27.8269L238.18 27.7488C233.902 44.6333 210.24 38.1591 215.873 19.9704C219.062 9.66166 237.373 9.77099 238.18 21.5558V21.5636Z" fill="#FEFEFE"/>
<path d="M200.673 20.4077C201.794 14.9019 209.026 12.6371 213.954 12.2935V19.2519C212.026 17.5806 206.926 19.7439 206.926 21.9618V37.0423H200.673C201.355 32.1612 199.749 24.9607 200.673 20.4155V20.4077Z" fill="#FEFEFE"/>
<path d="M207.059 49.4752C205.782 46.3514 199.624 43.8523 196.396 43.9382C177.748 44.4302 185.238 78.4803 201.794 66.2972C202.82 68.5074 200.438 72.9042 197.837 73.2713C194.805 73.693 190.182 69.1243 185.771 70.944C189.07 81.5495 206.283 81.6667 207.655 69.7725C208.046 66.3832 208.101 52.0368 207.059 49.483V49.4752ZM197.046 63.9544C189.947 64.3995 189.838 49.9907 196.521 49.4206C203.424 48.8348 204.199 63.5014 197.046 63.9544Z" fill="#FEFEFE"/>
<path d="M160.417 53.0911C157.8 40.6894 138.988 41.8062 137.319 53.5285C136.34 60.3853 138.04 69.2493 137.319 76.3405C146.032 77.754 143.211 72.4357 143.58 66.2895C154.063 74.3959 162.752 64.134 160.417 53.0989V53.0911ZM149.377 63.9544C142.138 64.3995 142.326 50.8888 147.097 50.0297C148.429 49.7876 151.814 50.061 152.762 50.9981C155.826 54.0205 154.799 63.6186 149.37 63.9466L149.377 63.9544Z" fill="#FEFEFE"/>
<path d="M220.77 44.0397C207.083 45.5002 207.231 67.1485 219.956 69.1869C239.042 72.2482 239.825 42.0092 220.77 44.0397ZM223.638 63.97C215.443 65.3445 214.62 50.6155 221.523 49.3894C229.671 47.9446 230.118 62.8845 223.638 63.97Z" fill="#FEFEFE"/>
<path d="M182.222 47.7572C178.555 42.2123 162.117 43.2666 163.112 52.3649C164.844 52.115 167.249 52.7632 168.816 52.3883C169.905 52.1228 169.42 48.9833 173.658 49.202C175.68 49.3113 178.312 51.4824 177.176 53.1302C176.118 54.6609 164.092 53.0443 162.501 59.87C159.696 71.9046 178.234 71.6625 182.191 64.6729C183.977 61.5178 184.228 50.7951 182.222 47.7572ZM168.683 63.8607C167.312 57.3709 173.149 59.1671 177.168 57.0038C178.046 62.9313 174.481 66.4691 168.683 63.8607Z" fill="#FEFEFE"/>
</svg>
