<svg width="329" height="189" viewBox="0 0 329 189" fill="none" xmlns="http://www.w3.org/2000/svg">
<path d="M184.033 165.301C183.976 160.501 183.982 155.663 184.134 150.869L205.005 139L225.845 150.895C226.053 155.675 226.034 160.514 225.977 165.301L224.986 166.187L204.967 154.783L185.296 166.027L184.033 165.301Z" stroke="#FEFEFE" stroke-width="2" stroke-miterlimit="10"/>
<path d="M219.719 179.197C219.536 179.312 219.258 179.994 218.69 180.351C216.789 181.524 206.142 188.006 204.999 188C199.77 185.629 195.135 182.206 190.291 179.197C190.171 178.7 190.001 177.948 190.316 177.737C191.984 176.628 204.007 169.884 204.955 169.846C205.795 169.814 217.945 176.596 219.523 177.648L219.713 179.197H219.719Z" stroke="#FEFEFE" stroke-width="2" stroke-miterlimit="10"/>
<path d="M225.977 165.301C225.965 166.563 226.009 167.831 225.977 169.094L224.834 169.552C218.14 166.512 211.516 163.076 204.967 159.232L185.296 170.458L184.033 169.725C183.989 168.252 184.052 166.773 184.033 165.301L204.999 153.317L225.977 165.301Z" stroke="#FEFEFE" stroke-width="2" stroke-miterlimit="10"/>
<path d="M225.977 173.511C225.914 174.365 226.192 175.264 225.681 176.067C225.239 176.736 224.291 176.52 224.095 176.673L222.106 177.004L204.967 167.417L188.119 176.883C187.456 177.144 186.723 177.074 185.909 176.679C185.719 176.526 184.772 176.743 184.323 176.074C183.812 175.27 184.09 174.372 184.027 173.517L204.999 161.75L225.971 173.517L225.977 173.511Z" stroke="#FEFEFE" stroke-width="2" stroke-miterlimit="10"/>
<path d="M224.102 176.673C222.283 178.107 221.153 178.298 219.719 179.197L205.005 171.006L190.298 179.197C188.826 178.285 187.746 178.113 185.915 176.673L205.005 165.951L224.102 176.673Z" stroke="#FEFEFE" stroke-width="2" stroke-miterlimit="10"/>
<path d="M254.963 147.982C257.894 149.556 259.687 152.323 260.344 156.268H256.334C255.854 154.063 254.862 152.456 253.359 151.449C251.856 150.442 249.962 149.939 247.676 149.939C244.96 149.939 242.681 150.99 240.824 153.087C238.967 155.185 238.039 158.308 238.039 162.464C238.039 166.053 238.803 168.979 240.331 171.235C241.86 173.492 244.354 174.62 247.815 174.62C250.461 174.62 252.658 173.83 254.395 172.243C256.132 170.662 257.022 168.099 257.06 164.561H247.688V161.17H260.824V177.329H258.216L257.237 173.441C255.885 174.964 254.692 176.016 253.65 176.609C251.901 177.623 249.678 178.132 246.975 178.132C243.489 178.132 240.489 176.972 237.976 174.658C235.235 171.752 233.871 167.761 233.871 162.694C233.871 157.626 235.21 153.61 237.888 150.627C240.433 147.778 243.723 146.35 247.764 146.35C250.537 146.35 252.93 146.898 254.951 147.994L254.963 147.982Z" fill="#FEFEFE"/>
<path d="M270.429 167.576C270.524 169.291 270.909 170.681 271.585 171.752C272.879 173.753 275.165 174.754 278.43 174.754C279.895 174.754 281.228 174.537 282.434 174.097C284.764 173.25 285.926 171.726 285.926 169.533C285.926 167.889 285.433 166.716 284.448 166.015C283.45 165.333 281.884 164.733 279.75 164.224L275.822 163.299C273.258 162.694 271.439 162.031 270.378 161.304C268.534 160.042 267.612 158.161 267.612 155.65C267.612 152.934 268.515 150.71 270.328 148.97C272.14 147.229 274.704 146.356 278.02 146.356C281.07 146.356 283.665 147.121 285.8 148.651C287.934 150.181 289.001 152.622 289.001 155.981H285.193C284.998 154.362 284.581 153.126 283.943 152.259C282.756 150.684 280.748 149.894 277.906 149.894C275.613 149.894 273.965 150.404 272.968 151.417C271.963 152.431 271.465 153.61 271.465 154.955C271.465 156.434 272.058 157.518 273.239 158.206C274.016 158.646 275.771 159.194 278.506 159.851L282.573 160.82C284.53 161.285 286.046 161.922 287.113 162.732C288.957 164.141 289.879 166.193 289.879 168.877C289.879 172.223 288.705 174.614 286.355 176.054C284.006 177.495 281.272 178.215 278.158 178.215C274.527 178.215 271.692 177.259 269.639 175.334C267.587 173.428 266.577 170.847 266.621 167.583H270.429V167.576Z" fill="#FEFEFE"/>
<path d="M298.55 167.576C298.644 169.291 299.03 170.681 299.705 171.752C301 173.753 303.286 174.754 306.551 174.754C308.016 174.754 309.348 174.537 310.555 174.097C312.885 173.25 314.047 171.726 314.047 169.533C314.047 167.889 313.554 166.716 312.569 166.015C311.571 165.333 310.005 164.733 307.871 164.224L303.943 163.299C301.379 162.694 299.56 162.031 298.499 161.304C296.655 160.042 295.733 158.161 295.733 155.65C295.733 152.934 296.636 150.71 298.449 148.97C300.261 147.229 302.825 146.356 306.14 146.356C309.191 146.356 311.786 147.121 313.92 148.651C316.055 150.181 317.122 152.622 317.122 155.981H313.314C313.118 154.362 312.702 153.126 312.064 152.259C310.877 150.684 308.868 149.894 306.027 149.894C303.734 149.894 302.086 150.404 301.088 151.417C300.084 152.431 299.585 153.61 299.585 154.955C299.585 156.434 300.179 157.518 301.36 158.206C302.137 158.646 303.892 159.194 306.627 159.851L310.694 160.82C312.651 161.285 314.167 161.922 315.234 162.732C317.078 164.141 318 166.193 318 168.877C318 172.223 316.825 174.614 314.476 176.054C312.127 177.495 309.393 178.215 306.279 178.215C302.648 178.215 299.813 177.259 297.76 175.334C295.708 173.428 294.698 170.847 294.742 167.583H298.55V167.576Z" fill="#FEFEFE"/>
<path d="M288.013 111.662C287.47 111.505 286.858 110.423 287.266 109.755L294.051 91.1921C293.326 90.2064 279.095 92.7305 279.095 89.7227V73.3432C279.095 73.2833 279.896 72.4634 279.96 72.4634H316.775C316.834 72.4634 317.64 73.2787 317.64 73.3432V89.7227C317.64 91.4086 315.375 90.6025 315.049 90.6025H302.969C300.999 90.6025 303.2 93.2602 303.377 93.7024C304.69 97.0465 308.64 106.825 308.903 109.783C308.966 110.474 308.785 111.667 308.146 111.667H288.013V111.662ZM316.49 73.6333H280.245V89.4279H294.916C297.339 89.4279 294.445 93.6287 294.304 94.0709C293.815 95.614 293.349 96.8899 292.941 98.0599C291.578 101.957 289.947 106.485 289.449 110.487H307.281C307.182 107.277 305.08 103.951 304.106 101.137C303.44 99.2114 303.024 96.6458 302.403 94.6789C302.236 94.1446 299.319 89.4279 301.814 89.4279H316.485V73.6333H316.49Z" fill="#FEFEFE"/>
<path d="M316.49 73.6333V89.4279H301.819C299.323 89.4279 302.24 94.1492 302.408 94.6789C303.028 96.6457 303.445 99.2114 304.111 101.137C305.085 103.951 307.186 107.272 307.286 110.487H289.453C289.947 106.489 291.582 101.957 292.946 98.0598C293.353 96.8899 293.82 95.614 294.309 94.0709C294.449 93.6287 297.344 89.4279 294.921 89.4279H280.245V73.6333H316.485H316.49Z" fill="#FEFEFE"/>
<path d="M37.822 93.6769L43.4077 73.0868C44.1463 72.5998 47.9984 72.4408 48.4498 73.6969L53.3738 93.6871L58.9749 73.3586L63.8271 72.8612L56.1795 98.3835C55.6101 99.4396 52.0299 99.5934 51.0657 99.0243C49.8552 98.3014 46.6135 81.6489 45.9672 78.9572L40.7508 98.6398C39.5608 99.3473 36.4884 99.7729 35.4985 98.7731L27.6097 72.8612C29.2716 73.0202 31.9747 72.1845 32.9441 73.8969L37.8169 93.682L37.822 93.6769Z" fill="#FEFEFE"/>
<path d="M0.0760927 107.392C6.91847 110.965 13.9865 114.277 21.4957 116.277C38.1759 120.727 53.8662 120.589 70.4592 115.769C72.9623 115.041 76.9887 112.919 78.9891 112.575C83.0925 111.873 79.9277 114.457 78.3787 115.528C58.0773 129.571 26.7172 127.223 6.84666 113.595C6.08241 113.072 -0.82152 108.309 0.0812221 107.386L0.0760927 107.392Z" fill="#FEFEFE"/>
<path d="M20.4698 95.7124C16.2382 100.604 6.13879 102.08 3.78961 94.8049C0.553071 84.7919 12.3554 81.5465 19.962 84.5355C21.3367 73.6047 12.4118 75.5376 5.1745 77.9319C5.24118 77.0347 5.01036 76.0042 5.1745 75.1377C5.72332 72.1641 15.2021 72.0666 17.6693 72.3435C27.1019 73.415 24.0039 83.9767 24.5629 90.3649C24.7476 92.4619 26.5736 96.7788 25.5683 97.9785C23.3576 100.614 20.9007 98.4092 20.4698 95.7021V95.7124ZM19.9313 87.6117C15.8587 86.9196 8.68288 85.684 8.34948 91.5288C7.90324 99.4038 22.7882 95.7021 19.9313 87.6117Z" fill="#FEFEFE"/>
<path d="M65.8737 94.1845C67.8895 93.9589 69.3565 95.3945 71.2696 95.6662C74.4446 96.1071 82.1385 96.2148 80.5587 90.9955C79.3995 87.1605 67.9254 88.4217 66.4995 81.6285C64.7299 73.1997 74.1882 70.7284 80.6818 72.5793C82.3026 73.0407 84.2722 73.656 84.2773 75.6452C84.2927 78.9624 80.7587 76.322 78.7429 76.0349C76.1732 75.6709 70.6952 75.9631 71.1004 79.6392C71.5466 83.7151 81.4768 83.8792 84.2414 87.3143C88.0371 92.026 83.9798 98.4758 78.6506 99.5473C74.6395 100.352 64.6068 100.25 65.8737 94.1845Z" fill="#FEFEFE"/>
<path d="M75.8141 108.407C75.2294 108.443 74.0189 109.335 73.0084 108.909C76.8092 105.3 83.7746 105.028 88.5961 106.853C90.2734 109.237 86.4008 120.009 82.9642 121.112L85.693 111.175L85.2057 109.74C84.9646 109.371 83.7593 108.407 83.472 108.407C80.9792 108.407 78.2761 108.248 75.8192 108.407H75.8141Z" fill="#FEFEFE"/>
<path d="M137.248 74.0583C150.284 75.6818 149.812 92.7263 137.579 93.3086C139.217 97.589 145.665 102.787 147.146 106.597C148.54 110.176 145.372 109.482 143.189 107.245C141.856 105.88 132.293 93.2237 132.286 92.2982C132.255 89.1554 137.206 90.2544 139.091 89.8457C144.313 88.7158 144.697 79.7347 139.08 78.1883C136.776 77.552 130.808 76.6574 128.984 78.3696V107.569C128.984 109.952 125.678 109.393 125.678 108.232V75.0571L126.668 74.0622C130.035 74.3591 133.965 73.6534 137.244 74.0622L137.248 74.0583Z" fill="#FEFEFE"/>
<path d="M214.233 80.6987C213.726 80.3015 212.824 82.1911 212.588 82.6847C209.232 89.757 207.576 101.272 203.805 107.712C202.339 110.214 200.397 109.686 200.374 106.983L211.453 75.5738L213.266 74.0159C214.058 73.9388 214.682 74.1701 215.292 74.6637C217.885 76.75 225.053 103.053 227.128 107.924L225.22 109.192L223.358 107.044L214.229 80.6987H214.233Z" fill="#FEFEFE"/>
<path d="M189.139 103.254L199.159 75.1727L201.966 74.1007C203.078 74.7292 202.941 74.9953 202.743 76.0712C201.638 82.11 196.798 94.0643 194.429 100.288C193.579 102.521 191.923 109.007 189.478 109.2L187.589 108.618L175.969 75.1496L177.565 74.0312L179.724 75.8707L189.139 103.254Z" fill="#FEFEFE"/>
<path d="M151.458 74.7254C151.964 73.9271 167.446 73.7613 169.666 74.0312C172.096 74.3243 172.092 74.9375 171.951 77.3784C169.411 76.7614 166.558 78.0417 164.349 78.0456C161.577 78.0494 157.239 75.9516 154.767 78.3772V104.923L155.757 105.918H171.951L171.662 108.614C170.85 109.802 154.131 109.424 151.461 108.571V74.7254H151.458Z" fill="#FEFEFE"/>
<path d="M231.424 75.057C231.87 73.4875 234.73 74.0659 234.73 75.057V108.24L233.089 109.231C232.773 108.818 231.428 107.777 231.428 107.573V75.057H231.424Z" fill="#FEFEFE"/>
<path d="M167.979 92.6413H157.734C157.06 92.6413 156.374 90.559 156.744 89.9959C157.14 89.3905 170.378 87.4393 167.975 92.6413H167.979Z" fill="#FEFEFE"/>
<path d="M216.884 95.9578L210.611 95.9655C208.718 92.2211 217.938 91.9627 216.884 95.9578Z" fill="#FEFEFE"/>
<path d="M156 165.169V167.575L154.772 171.599C153.571 172.273 153.98 173.336 156 174.787V177.993C153.031 177.699 149.396 178.414 146.552 177.998C145.338 177.822 145.248 178.473 145.324 176.781C145.464 173.58 148.464 171.283 150.259 168.777C147.655 168.266 143.012 169.008 145.706 165.124C146.642 163.776 154.146 164.07 156 165.173V165.169Z" fill="#FEFEFE"/>
<path d="M124.053 177.993C118.996 176.641 114.974 180.892 110.93 176.004C107.227 171.527 110.12 165.485 115.442 164.287C117.246 165.522 122.838 163.875 123.68 165.133C124.962 167.041 123.518 175.217 124.053 177.993ZM114.749 168.488C112.329 169.279 113.089 173.987 115.622 174.674C121.156 176.176 122.231 166.037 114.749 168.488Z" fill="#FEFEFE"/>
<path d="M79.8198 159.561C79.9683 159.421 83.7744 159.417 83.9183 159.561C84.2602 159.887 83.5494 164.753 83.9183 165.173C84.2467 165.544 90.8017 162.207 92.5607 167.534C92.9881 168.823 93.3121 177.636 92.9252 178.002C92.7767 178.143 88.9661 178.143 88.8221 178.002C88.4712 177.668 89.0921 169.899 88.8221 168.379C80.7466 166.173 85.1645 176.804 83.9138 178.002C83.7654 178.143 79.8153 178.197 79.8153 178.002C79.8153 175.443 79.1405 160.217 79.8153 159.57L79.8198 159.561Z" fill="#FEFEFE"/>
<path d="M64.2535 164.368V177.989C58.3914 178.712 49.4251 179.472 49.596 171.161C49.7625 163.125 58.8998 164.92 64.2535 164.364V164.368ZM55.818 168.52C52.8083 169.397 52.8533 173.774 55.818 174.638C62.0176 176.447 62.0176 166.711 55.818 168.52Z" fill="#FEFEFE"/>
<path d="M98.6613 173.191C99.5206 176.8 107.704 172.029 106.849 175.977C105.9 180.372 92.9522 179.838 94.6123 169.623C95.818 162.198 107.056 162.51 108.167 170.763C108.73 174.941 101.554 172.626 98.6568 173.191H98.6613ZM104.393 169.971C103.97 167.873 99.7725 167.244 98.6613 168.389C96.5513 170.555 103.709 170.03 104.393 169.971Z" fill="#FEFEFE"/>
<path d="M136.34 161.963C136.47 161.836 139.431 161.8 139.979 161.908C140.843 162.076 140.11 163.753 140.587 164.219C141.064 164.685 142.782 163.979 142.949 164.807C143.983 169.921 140.573 167.841 140.38 168.814C140.218 169.628 140.218 173.535 140.38 174.344C140.555 175.203 144.172 173.752 142.895 177.989C141.343 178.477 136.34 177.686 136.34 175.99C136.34 174.018 135.827 162.456 136.34 161.967V161.963Z" fill="#FEFEFE"/>
<path d="M126.51 165.571C127.18 163.392 131.854 165.779 133.874 164.373C135.427 168.42 131.26 169.008 130.73 170.505C130.167 172.097 130.986 177.641 130.608 177.998C130.46 178.138 126.51 178.192 126.51 177.998C126.51 175.249 125.929 167.466 126.51 165.576V165.571Z" fill="#FEFEFE"/>
<path d="M70.8085 159.561V177.993C70.8085 178.192 66.7145 178.192 66.7145 177.993V159.561C66.7145 159.362 70.1157 159.697 70.8085 159.561Z" fill="#FEFEFE"/>
<path d="M77.3589 159.561V177.993C77.3589 178.192 73.2649 178.192 73.2649 177.993V159.561C73.2649 159.362 76.6661 159.697 77.3589 159.561Z" fill="#FEFEFE"/>
<path d="M69.9896 160.362V177.189C69.9896 177.311 67.5332 177.311 67.5332 177.189V160.362C67.5332 160.24 69.4767 160.439 69.9896 160.362Z" fill="#FEFEFE"/>
<path d="M76.54 160.362V177.189C76.54 177.311 74.0836 177.311 74.0836 177.189V160.362C74.0836 160.24 76.0272 160.439 76.54 160.362Z" fill="#FEFEFE"/>
<path d="M29.0314 181.996H23.2953C23.0614 181.091 22.2966 180.874 21.6577 180.395C19.8087 178.495 18.441 176.623 17.5637 174.787C16.9878 173.738 20.6365 169.56 21.6577 170.781C23.4213 172.327 29.5353 177.27 30.3181 178.807C31.0425 180.236 29.6208 180.983 29.0314 182V181.996Z" fill="#FEFEFE"/>
<path d="M34.7631 166.774C34.6056 166.571 34.9116 165.173 34.3312 164.423C33.6159 163.496 29.5713 160.068 29.8548 159.58C37.8134 153.986 46.5098 164.504 39.6759 171.581C36.9406 172.006 34.9431 169.089 34.7631 166.774Z" fill="#FEFEFE"/>
<path d="M17.5592 158.761C20.4655 158.643 20.488 163.464 19.1968 165.173C18.378 165.395 17.8471 166.023 17.5592 166.774C16.7494 168.981 11.5082 168.393 11.0043 165.974C11.1347 162.184 13.8206 159.317 17.5592 158.761Z" fill="#FEFEFE"/>
<path d="M17.5592 166.774C17.9011 166.887 18.1305 167.439 18.378 167.575C20.0876 169.297 15.5617 173.494 13.4652 172.382C11.7961 170.035 10.9008 169.062 11.0088 165.969C12.7588 166.29 16.097 166.281 17.5637 166.77L17.5592 166.774Z" fill="#FEFEFE"/>
<path d="M30.669 166.774C32.3336 168.325 29.4408 171.441 27.3938 171.581C25.8551 170.329 25.3962 169.827 24.1186 168.375C22.5754 166.453 26.1791 163.08 28.2126 164.368C28.9009 164.979 30.4485 166.62 30.669 166.774Z" fill="#FEFEFE"/>
<path d="M28.2082 164.368L24.1141 168.375C23.4168 167.588 22.5485 167.471 21.6577 165.969C20.6545 163.903 22.697 161.14 24.9329 161.162C26.2871 162.315 27.1599 163.437 28.2082 164.368Z" fill="#FEFEFE"/>
<path d="M32.3066 167.575C32.923 169.32 32.905 172.544 31.4878 173.987C28.0416 172.965 29.5623 173.349 27.3938 171.581C27.4388 169.406 29.7827 168.578 30.669 166.774C30.7545 166.833 32.2211 167.552 32.3066 167.575Z" fill="#FEFEFE"/>
<path d="M22.4765 158.761C23.8352 160.583 23.2908 162.722 20.8389 165.173C20.3216 165.255 19.6422 165.056 19.2013 165.173L17.5637 158.761C18.531 158.616 21.6307 158.567 22.4765 158.761Z" fill="#FEFEFE"/>
<path d="M20.02 169.175C21.2797 170.962 17.0912 175.276 15.1072 173.982C14.7383 173.539 14.095 173.259 13.4696 172.382L18.3824 167.575C19.3722 168.131 19.5342 168.787 20.02 169.175Z" fill="#FEFEFE"/>
<path d="M39.6804 171.581C38.8436 172.449 37.5029 173.517 36.4052 173.987C34.1647 175.199 33.8858 169.411 33.9488 167.575C34.1422 167.525 34.4526 166.928 34.7676 166.774C35.9418 168.294 38.5917 169.56 39.6804 171.581Z" fill="#FEFEFE"/>
<path d="M24.933 161.162C25.0994 163.681 21.4913 163.45 21.6577 165.969C21.5093 165.72 20.8929 165.472 20.8389 165.169C20.4025 162.727 22.0627 160.972 22.4766 158.756C23.9117 159.082 24.2356 160.57 24.933 161.162Z" fill="#FEFEFE"/>
<path d="M36.4007 173.982C35.2489 174.475 34.4751 174.864 33.1254 174.783C31.6633 172.974 32.4461 169.718 33.1254 167.57C33.3549 167.593 33.7328 167.624 33.9442 167.57L36.4007 173.982Z" fill="#FEFEFE"/>
<path d="M33.1255 174.787C32.2842 174.738 31.8478 174.095 31.4879 173.987C30.2102 172.024 32.5901 169.885 32.3067 167.575C32.5271 167.638 32.842 167.547 33.1255 167.575C32.887 170.071 34.2817 172.409 33.1255 174.787Z" fill="#FEFEFE"/>
<path d="M21.6577 170.781C19.8222 171.685 18.7649 173.259 17.5637 174.787C17.7932 175.542 17.5187 175.809 16.7449 175.588C16.241 175.059 15.7237 174.733 15.1073 173.987C17.3748 173.223 19.6512 171.776 20.0201 169.18C20.7669 169.777 21.1404 170.324 21.6577 170.781Z" fill="#FEFEFE"/>
<path d="M21.6577 180.395C19.4082 178.703 18.5399 177.482 16.7449 175.588C16.9743 175.289 17.3342 175.077 17.5637 174.787C18.6074 176.949 21.4912 177.858 21.6577 180.395Z" fill="#FEFEFE"/>
<path d="M274.143 42.9892C273.693 36.732 275.183 29.8571 273.232 23.9168C274.732 24.1853 280.925 23.4871 281.391 23.949C281.858 24.4109 283.231 35.0616 284.615 36.6407C285.792 36.6622 287.563 25.9417 288.612 24.4539C289.535 23.1434 294.179 24.2444 296.003 23.9114V42.9946H292.356L290.988 28.4499L286.889 42.9946H283.247L278.237 28.4499L277.781 42.9946H274.138L274.143 42.9892Z" fill="#FEFEFE"/>
<path d="M241.357 42.9893C229.332 37.2745 236.924 18.1645 248.578 24.4378C251.101 25.7967 255.009 30.7595 249.145 29.3254C247.109 28.8259 245.916 26.844 244.002 27.0589C235.175 28.0364 240.657 45.8198 248.636 37.0758L244.994 35.7223C243.811 30.0129 247.931 32.5427 252.289 32.0861C252.819 37.4679 251.998 40.8731 246.823 42.9946H241.357V42.9893Z" fill="#FEFEFE"/>
<path d="M271.413 42.9893H266.859C266.313 37.8331 265.199 37.7633 259.993 38.3863C257.718 38.6603 258.084 40.8946 257.755 42.9893H253.201C254.018 40.4864 258.005 24.6527 258.757 24.0082C259.16 23.6644 263.582 23.745 264.468 24.035C266.429 24.6849 270.194 39.9547 271.418 42.9893H271.413ZM263.206 28.45C261.223 26.3983 260.459 34.256 259.574 34.8039H264.128C264.356 34.5837 263.428 28.6809 263.206 28.45Z" fill="#FEFEFE"/>
<path d="M299.64 42.9893C297.657 37.0382 299.206 30.1311 298.728 23.9115H312.386C313.181 29.0193 306.671 28.0364 303.288 26.64L303.272 31.1892H310.568C311.792 36.9845 307.318 34.3205 303.272 34.8146V39.3692L311.92 39.3585L311.474 43H299.635L299.64 42.9893Z" fill="#FEFEFE"/>
<path d="M318.77 42.9893C314.194 41.5713 311.676 34.2292 317.826 37.1134C319.157 37.7364 319.279 39.4175 321.945 39.4444C323.372 39.4551 325.508 38.816 325.137 37.0973C324.474 34.0412 313.902 35.1046 314.199 28.9924C314.539 22.1068 327.656 21.5267 328.796 27.9881C329.564 32.3386 323.032 26.8494 322.677 26.7581C321.924 26.5701 318.998 27.3543 318.828 27.6175C316.246 31.6081 326.966 31.2053 328.175 34.1056C330.132 38.7999 328.525 41.147 324.231 42.9893H318.764H318.77Z" fill="#FEFEFE"/>
<path d="M226.745 5.77898L226.792 32.0915L218.596 32.9992C217.965 27.8216 217.493 21.7899 216.12 16.7949C215.68 15.1836 216.406 14.437 214.041 14.8291L215.865 32.9885C213.893 32.9562 209.296 34.82 207.78 33.7887C206.873 33.1711 205.51 22.0316 204.959 19.7597C204.583 18.2182 205.86 17.1118 203.119 17.5576L204.031 34.8146C201.836 34.0573 197.25 36.4904 196.253 34.8522L193.555 20.2807C188.809 25.2005 198.507 36.9469 188.544 36.63C188.332 32.5749 181.737 14.5928 183.216 12.2295L207.334 1.44995L226.75 5.77898H226.745Z" fill="#FEFEFE"/>
<path d="M235.896 1.19747C241.606 0.483122 252.878 1.36397 250.301 9.65142C249.304 12.8633 245.434 10.7525 245.911 13.916C250.571 12.8042 250.057 16.2953 251.393 19.8134C243.281 23.1649 248.679 11.5904 240.45 13.916L240.461 20.286H235.901V1.19747H235.896ZM240.45 10.2906C248.085 11.5366 248.085 3.58219 240.45 4.82826V10.2906Z" fill="#FEFEFE"/>
<path d="M267.516 1.37467C281.057 -1.62235 282.876 20.6942 269.881 20.8929C258.779 21.0648 257.485 3.59289 267.516 1.37467ZM273.014 5.9615C267.734 0.681809 261.286 11.8535 266.912 16.1449C273.083 20.8553 276.673 9.61915 273.014 5.9615Z" fill="#FEFEFE"/>
<path d="M293.267 1.19743C293.49 1.42838 293.124 3.94738 293.267 4.82823C292.509 5.00547 288.708 4.60264 288.708 4.82823V20.2752H284.154V7.10016C284.154 6.22469 287.192 6.22469 286.879 4.83897C282.521 4.35558 278.406 6.92829 279.599 1.19743C281.635 1.55729 292.785 0.708667 293.257 1.19743H293.267Z" fill="#FEFEFE"/>
<path d="M226.782 34.8146L226.792 42.0815C224.38 42.103 209.116 40.0889 208.58 39.3423C208.008 38.5474 209.047 37.0973 210.091 36.775C214.232 35.5074 222.201 36.7105 226.782 34.8092V34.8146Z" fill="#FEFEFE"/>
<path d="M257.75 1.19742V20.2752C257.75 20.4578 254.108 20.4578 254.108 20.2752V1.19742C254.108 1.0148 257.098 1.32095 257.75 1.19742Z" fill="#FEFEFE"/>
<path d="M41.6617 0.00400768C44.0784 0.601139 46.5223 0.833578 48.9429 1.48682C55.7181 3.31428 64.731 8.64036 65.6844 16.5153C67.2644 29.588 56.4225 36.5933 45.277 38.4328C32.7111 40.5087 15.2029 37.2185 11 23.0156V15.0806C13.6346 8.27567 19.6082 4.08774 26.2316 1.87956L35.0655 0H41.6656L41.6617 0.00400768ZM58.3527 6.75279C48.2618 0.61717 35.8399 -0.633198 24.7723 3.56676C23.7605 3.95148 19.1567 5.77894 19.149 6.94515C23.9317 8.84876 27.5664 9.80256 32.5671 7.96709C33.8825 7.48217 34.762 6.53638 36.2096 6.13562C42.5101 4.38831 45.67 8.54819 51.1649 8.75658C51.916 8.78464 59.131 7.78274 58.3527 6.7568V6.75279ZM38.4706 6.84096C34.8126 7.22969 31.8238 10.1793 29.7963 13.0848C29.4772 13.3853 30.0065 13.7621 30.2672 13.8342C34.7114 15.1367 36.5482 7.3379 42.4128 10.9407C44.3041 12.1029 52.2118 19.9939 53.1068 20.1021L64.5403 16.0263C64.9723 14.5916 60.9678 8.45201 59.563 8.1314C59.1349 8.03522 53.5116 9.9789 51.5658 9.95886C47.0671 9.90275 42.8837 6.37207 38.4745 6.84096H38.4706ZM31.1817 9.53005C26.2978 11.3976 22.091 8.94494 17.4561 7.62244C14.9305 9.74646 12.3854 12.8243 12.1753 16.2588C14.1794 16.7317 16.3392 17.0803 18.2889 17.7496C19.4564 18.1504 23.1184 20.1141 23.6788 20.1582C24.3286 20.2103 24.8929 19.5049 25.5817 19.4488C26.7803 19.3526 27.3641 20.4467 27.8817 20.4908C28.3992 20.5349 29.0258 19.9297 29.7613 19.9578C31.2712 20.0219 32.0768 21.3805 32.2324 21.4206C33.6295 21.7612 34.7386 21.1 35.7932 22.8753C36.0929 23.3803 36.0851 24.2379 36.3108 24.5144C36.6533 24.9352 37.9881 24.7869 38.743 25.8009C39.677 27.0552 39.0193 28.6262 39.5019 29.3877C39.9845 30.1491 42.8564 30.1812 42.4284 29.1753L40.1012 26.1976C42.1598 26.1054 43.125 29.8084 45.1447 28.7785C47.6742 27.4921 43.0277 25.0274 42.8175 23.4163C45.0707 23.7049 46.6313 28.009 48.7872 26.5423C51.8148 24.4824 45.7751 22.0898 45.5338 19.8416C46.0592 19.2925 49.7173 23.3763 50.1959 23.6007C52.3791 24.6226 53.9085 22.9675 52.3558 20.9998C49.3476 18.7996 46.6857 15.7779 43.7748 13.5016C36.5248 7.83484 37.7546 13.7661 32.75 14.9082C31.3763 15.2208 28.0101 14.8441 28.5004 12.9766L31.17 9.52604L31.1817 9.53005ZM22.9471 21.116C22.5035 20.2944 12.1753 17.0242 11.7744 17.4651C12.1013 31.8804 29.5395 36.3769 41.0974 35.6996C50.7019 35.1385 64.9684 29.6201 64.5597 17.8618C64.1862 17.4811 55.0137 20.3586 54.4611 20.8315C53.5077 21.649 54.9787 23.6368 52.8072 24.6988C52.2468 24.9713 51.3907 24.9032 50.9782 25.2077C50.5112 25.5524 50.5151 26.7346 49.6278 27.3999C48.5109 28.2375 43.2145 30.8144 41.868 30.9827C40.5215 31.151 39.3307 30.5018 38.3772 30.5739C36.7233 30.6981 36.661 32.1529 34.1821 30.5739C32.1196 29.2594 30.2322 28.6503 28.1813 27.476C26.9671 26.7827 26.4223 25.368 26.0254 25.1156C25.4261 24.7348 24.4104 25.1236 23.6165 24.2018C22.7059 23.1438 23.3052 21.7933 22.9394 21.12L22.9471 21.116ZM27.3057 22.6188C27.3641 20.7072 25.5895 19.8416 24.387 21.4286C23.5153 23.7931 25.5117 24.8471 27.294 23.4123C26.6208 27.6564 30.5863 25.9812 30.7887 26.1856C30.8898 26.2898 30.6758 27.7606 31.8472 28.1132L34.2833 27.7726C34.365 28.7464 34.3845 29.7163 35.4274 29.9968C39.5681 31.1029 39.3034 24.1618 35.0694 26.1896C35.4313 23.256 34.365 21.5688 31.5787 23.0156C31.4308 21.0479 30.0103 20.567 28.3837 21.5448C27.7104 21.9496 27.8855 22.5547 27.3096 22.6148L27.3057 22.6188Z" fill="#FEFEFE"/>
<path d="M91.3455 17.465L88.8822 17.4009L88.24 16.8679V8.93288C88.24 7.47412 83.971 7.59034 83.971 9.72638V17.465H81.2547V8.93288C81.2547 7.47412 76.9856 7.59034 76.9856 9.72638V17.465H74.2693V8.93288C74.2693 6.55237 77.5849 4.58465 79.7953 4.84113C80.8577 4.96537 82.5506 6.356 82.9358 6.29589C83.6558 6.17566 84.7298 4.75697 86.4577 4.80105C87.2516 4.82109 88.995 5.39418 89.6177 5.94723C90.1664 6.43214 91.3533 9.12925 91.3533 9.73039V17.469L91.3455 17.465Z" fill="#FEFEFE"/>
<path d="M148.015 1.19425V14.0907C148.015 14.2069 147.057 15.87 146.859 16.0865C145.466 17.6093 142.773 17.7135 140.866 17.429C133.153 16.2828 136.935 -0.0881752 144.901 6.35603C144.757 3.78716 144.683 0.721358 148.011 1.19826L148.015 1.19425ZM142.088 7.6064C138.842 8.11536 139.146 15.0725 142.376 15.1126C146.524 15.1687 145.738 7.03331 142.088 7.6064Z" fill="#FEFEFE"/>
<path d="M104.153 11.9065H95.6145C95.311 14.0105 96.9027 15.349 98.8796 15.0805C99.7941 14.9563 100.351 14.1347 100.841 14.0706C101.623 13.9704 102.775 14.7158 103.76 13.8903C103.32 17.978 96.8482 18.5231 94.2486 16.2748C91.649 14.0265 91.7774 7.73863 94.9491 5.87109C99.6268 3.11387 104.674 6.38406 104.153 11.9065ZM95.6145 9.92277H101.047C100.463 6.6646 96.0971 6.60849 95.6145 9.92277Z" fill="#FEFEFE"/>
<path d="M153.735 4.86121C156.405 4.42037 159.74 5.47437 160.561 8.40392C162.254 14.4434 158.93 18.9359 152.661 17.2767C147.738 15.9743 147.731 5.85509 153.735 4.86121ZM153.159 8.04323C151.778 9.36574 151.789 13.8222 153.934 14.78C157.319 16.2949 158.382 11.7382 157.545 9.10525C157.02 7.45011 154.264 6.98523 153.159 8.04323Z" fill="#FEFEFE"/>
<path d="M134.698 16.1506C132.732 18.3227 125.159 18.4189 125.167 14.0907C125.179 9.4419 129.701 10.6322 132.016 9.66633C133.655 8.98103 132.448 7.30986 130.351 7.51425C128.584 7.68658 128.693 10.0631 125.891 9.13332C124.871 3.80322 135.079 3.53872 135.616 7.72265C135.842 9.47797 135.838 14.8962 134.698 16.1546V16.1506ZM132.876 11.5138C125.05 11.5659 129.199 17.95 132.106 14.4915C132.771 13.698 132.296 12.4195 132.876 11.5138Z" fill="#FEFEFE"/>
<path d="M124.334 9.52601L121.081 9.55406C118.59 4.15985 114.282 10.4518 116.956 14.0947C118.353 15.9983 120.999 15.1687 120.883 12.7401L124.334 12.7C122.21 21.3644 110.457 18.0421 113.255 8.70846C114.839 3.41844 123.934 3.47455 124.334 9.522V9.52601Z" fill="#FEFEFE"/>
<path d="M105.705 8.93293C106.262 6.10758 109.854 4.94538 112.302 4.76904V8.33981C111.344 7.48218 108.811 8.59228 108.811 9.73044V17.4691H105.705C106.044 14.9644 105.246 11.2694 105.705 8.93694V8.93293Z" fill="#FEFEFE"/>
<path d="M108.877 23.8492C108.243 22.2462 105.184 20.9637 103.581 21.0078C94.3186 21.2603 98.039 38.7334 106.262 32.4815C106.772 33.6157 105.589 35.872 104.297 36.0603C102.791 36.2767 100.495 33.9323 98.3036 34.8661C99.9419 40.3084 108.492 40.3685 109.173 34.2649C109.367 32.5256 109.395 25.1637 108.877 23.8532V23.8492ZM103.904 31.2793C100.378 31.5077 100.323 24.1137 103.643 23.8211C107.071 23.5206 107.457 31.0468 103.904 31.2793Z" fill="#FEFEFE"/>
<path d="M85.7104 25.7047C84.4107 19.3406 75.067 19.9137 74.2381 25.9291C73.7516 29.4478 74.5961 33.9964 74.2381 37.6353C78.5655 38.3607 77.1645 35.6315 77.3475 32.4775C82.5544 36.6374 86.8701 31.3714 85.7104 25.7087V25.7047ZM80.2272 31.2792C76.6314 31.5077 76.7248 24.5746 79.0948 24.1337C79.7563 24.0095 81.4375 24.1497 81.9084 24.6307C83.43 26.1816 82.9202 31.1069 80.2233 31.2752L80.2272 31.2792Z" fill="#FEFEFE"/>
<path d="M115.687 21.0599C108.889 21.8093 108.963 32.9184 115.283 33.9644C124.762 35.5353 125.152 20.0179 115.687 21.0599ZM117.112 31.2873C113.041 31.9926 112.632 24.4343 116.061 23.8051C120.108 23.0637 120.33 30.7302 117.112 31.2873Z" fill="#FEFEFE"/>
<path d="M96.5407 22.9676C94.7195 20.1222 86.555 20.6632 87.0492 25.332C87.9092 25.2038 89.1039 25.5364 89.8823 25.3441C90.4232 25.2078 90.1819 23.5967 92.2872 23.709C93.2913 23.7651 94.5988 24.8792 94.0346 25.7248C93.5092 26.5103 87.5356 25.6807 86.7456 29.1833C85.3525 35.359 94.5599 35.2348 96.5252 31.648C97.4124 30.0289 97.537 24.5265 96.5407 22.9676ZM89.8161 31.2312C89.1351 27.9009 92.0343 28.8226 94.0307 27.7125C94.4665 30.7543 92.6959 32.5697 89.8161 31.2312Z" fill="#FEFEFE"/>
</svg>
